<svg width="666.028" height="139.007" viewBox="0 0 176.22 36.779" xmlns="http://www.w3.org/2000/svg"><path d="M9.906 0C7.738 0 5.909.424 4.419 1.27a9.117 9.117 0 00-3.301 3.505C.373 6.198 0 8.095 0 10.465v15.95c0 2.27.491 4.166 1.473 5.69 1.016 1.524 2.337 2.642 3.963 3.353 1.625.711 3.386 1.067 5.283 1.067 3.623 0 6.265-1.1 7.925-3.302l.508 2.794h1.727v-15.24h-7.01l.812 2.235h4.013v3.607c0 2.235-.694 4.08-2.083 5.537-1.354 1.456-3.318 2.185-5.892 2.185-2.506 0-4.538-.695-6.096-2.083-1.558-1.423-2.337-3.336-2.337-5.74V10.262c0-3.285.864-5.47 2.59-6.553C6.605 2.59 8.569 2.032 10.77 2.032c1.83.034 3.709.458 5.639 1.27l.66-1.625C14.935.559 12.548 0 9.906 0zm38.962.457V29.31c0 1.998.423 3.59 1.27 4.775s2.218 2.049 4.114 2.59l.66-1.828c-1.32-.44-2.285-1.1-2.895-1.98-.575-.915-.863-2.1-.863-3.557V12.75h5.638l1.017-2.185h-6.655V.456zm81.125 0v35.56h2.286V.457zm-37.845 9.5c-1.93 0-3.556.338-4.877 1.016-1.287.677-2.236 1.54-2.845 2.59-.61 1.016-.915 2.083-.915 3.2 0 .305.017.543.051.712.136 1.22.593 2.235 1.372 3.048s1.676 1.456 2.692 1.93c1.05.44 2.422.932 4.115 1.474 1.592.508 2.845.982 3.76 1.422.948.407 1.743.965 2.387 1.677.643.71.965 1.608.965 2.692 0 1.592-.66 2.81-1.981 3.657s-2.862 1.27-4.623 1.27c-1.93 0-3.573-.44-4.927-1.32-1.321-.915-2.083-2.168-2.287-3.76h-2.184a7.122 7.122 0 001.168 3.607c.746 1.084 1.812 1.964 3.2 2.642 1.423.643 3.1.965 5.03.965 2.912 0 5.114-.677 6.604-2.032 1.524-1.355 2.286-3.048 2.286-5.08 0-1.558-.406-2.828-1.22-3.81a7.725 7.725 0 00-2.945-2.286c-1.152-.542-2.676-1.117-4.573-1.727-2.133-.643-3.742-1.27-4.826-1.88-1.083-.643-1.676-1.557-1.777-2.743-.17-1.693.39-2.98 1.676-3.86 1.287-.915 2.845-1.372 4.674-1.372.88 0 1.676.102 2.387.305s1.27.423 1.676.66c.44.204.712.339.813.407l.813-1.931c-.101-.068-.39-.22-.863-.457s-1.135-.457-1.982-.66c-.846-.237-1.794-.356-2.844-.356zm22.707.05c-3.082 0-5.453.864-7.112 2.591-1.626 1.693-2.439 4.149-2.439 7.366v6.706c0 2.81.796 5.165 2.388 7.061 1.626 1.863 4.013 2.794 7.163 2.794s5.503-.931 7.061-2.794 2.337-4.216 2.337-7.061v-6.706c0-3.082-.83-5.503-2.49-7.264-1.659-1.795-3.962-2.693-6.908-2.693zm-44.754.102c-2.81 0-5.08.762-6.807 2.286-1.693 1.524-2.54 3.657-2.54 6.4V29.21c0 2.473.728 4.335 2.184 5.588 1.49 1.22 3.489 1.829 5.995 1.829 1.558 0 3.115-.203 4.673-.61s2.947-.999 4.166-1.777l-.915-1.779c-2.675 1.423-5.232 2.134-7.67 2.134-1.83 0-3.32-.44-4.47-1.32-1.118-.915-1.677-2.253-1.677-4.014v-3.658l16.002-.863v-6.096c0-2.675-.796-4.758-2.388-6.248-1.558-1.524-3.742-2.286-6.553-2.286zm97.178 0c-2.811 0-5.08.762-6.808 2.286-1.693 1.524-2.54 3.657-2.54 6.4V29.21c0 2.473.729 4.335 2.185 5.588 1.49 1.22 3.488 1.829 5.994 1.829 1.558 0 3.116-.203 4.674-.61s2.946-.999 4.165-1.777l-.914-1.779c-2.676 1.423-5.233 2.134-7.671 2.134-1.829 0-3.319-.44-4.47-1.32-1.118-.915-1.676-2.253-1.676-4.014v-3.658l16.001-.863v-6.096c0-2.675-.796-4.758-2.387-6.248-1.558-1.524-3.743-2.286-6.553-2.286zm-132.433.05l-.152 1.83c3.251-.034 5.469.558 6.654 1.777 1.186 1.186 1.778 2.744 1.778 4.674-1.185-.88-2.624-1.575-4.318-2.083s-3.37-.762-5.029-.762c-1.76 0-3.217.288-4.368.864-2.371 1.151-3.556 3.403-3.556 6.756v4.217c0 3.454 1.05 5.841 3.149 7.162s4.927 1.982 8.483 1.982c1.626 0 4.268-.187 7.925-.56V20.879c0-2.235-.186-4.063-.559-5.486-.338-1.422-1.287-2.641-2.845-3.657-1.524-1.05-3.911-1.575-7.162-1.575zm102.411.407l8.28 25.45h2.947l8.33-25.45h-2.387l-7.417 22.81-7.366-22.81zM70.048 12.09c1.694 0 3.234.491 4.623 1.473 1.388.949 2.083 2.557 2.083 4.826v4.268l-13.716.71v-4.572c0-2.302.66-3.995 1.981-5.08 1.355-1.083 3.031-1.625 5.03-1.625zm44.804 0c2.134 0 3.844.644 5.13 1.93 1.322 1.288 1.982 3.252 1.982 5.893v7.112c0 2.202-.61 3.996-1.829 5.385s-2.98 2.083-5.283 2.083-4.098-.694-5.385-2.083c-1.253-1.422-1.88-3.217-1.88-5.385v-7.112c0-2.675.661-4.64 1.982-5.892 1.32-1.287 3.082-1.931 5.283-1.931zm52.374 0c1.693 0 3.234.491 4.622 1.473 1.389.949 2.083 2.557 2.083 4.826v4.268l-13.715.71v-4.572c0-2.302.66-3.995 1.98-5.08 1.356-1.083 3.032-1.625 5.03-1.625zM33.878 17.678c1.49 0 3.081.271 4.774.813 1.694.508 3.184 1.118 4.47 1.829v13.766c-2.438.305-4.334.458-5.689.458-2.946 0-5.249-.508-6.908-1.524-1.626-1.05-2.439-2.795-2.439-5.233v-4.42c0-2.031.525-3.487 1.575-4.368 1.084-.88 2.49-1.32 4.217-1.32zM10.76 20.776a1.671 1.671 0 00-1.671 1.67 1.671 1.671 0 00.89 1.477l-.89 5.4h3.342l-.89-5.4a1.671 1.671 0 00.89-1.476 1.671 1.671 0 00-1.671-1.671z" fill="#00afff"/></svg>