<?xml version="1.0" encoding="UTF-8" standalone="no"?>
<!-- Created with Inkscape (http://www.inkscape.org/) -->

<svg
   xmlns:dc="http://purl.org/dc/elements/1.1/"
   xmlns:cc="http://creativecommons.org/ns#"
   xmlns:rdf="http://www.w3.org/1999/02/22-rdf-syntax-ns#"
   xmlns:svg="http://www.w3.org/2000/svg"
   xmlns="http://www.w3.org/2000/svg"
   xmlns:sodipodi="http://sodipodi.sourceforge.net/DTD/sodipodi-0.dtd"
   xmlns:inkscape="http://www.inkscape.org/namespaces/inkscape"
   width="176.22461mm"
   height="36.779198mm"
   viewBox="0 0 176.22461 36.779198"
   version="1.1"
   id="svg4050"
   inkscape:version="0.92.5 (2060ec1f9f, 2020-04-08)"
   sodipodi:docname="gatesolve-name-inkscape-path.svg">
  <defs
     id="defs4044" />
  <sodipodi:namedview
     id="base"
     pagecolor="#ffffff"
     bordercolor="#666666"
     borderopacity="1.0"
     inkscape:pageopacity="0.0"
     inkscape:pageshadow="2"
     inkscape:zoom="2.3331729"
     inkscape:cx="325.60177"
     inkscape:cy="69.503992"
     inkscape:document-units="mm"
     inkscape:current-layer="layer1"
     showgrid="false"
     inkscape:window-width="2097"
     inkscape:window-height="1438"
     inkscape:window-x="1366"
     inkscape:window-y="0"
     inkscape:window-maximized="0" />
  <metadata
     id="metadata4047">
    <rdf:RDF>
      <cc:Work
         rdf:about="">
        <dc:format>image/svg+xml</dc:format>
        <dc:type
           rdf:resource="http://purl.org/dc/dcmitype/StillImage" />
        <dc:title></dc:title>
      </cc:Work>
    </rdf:RDF>
  </metadata>
  <g
     inkscape:label="Layer 1"
     inkscape:groupmode="layer"
     id="layer1"
     transform="translate(-98.417745,-163.83264)">
    <g
       aria-label="Gatesolve"
       style="font-style:normal;font-variant:normal;font-weight:300;font-stretch:normal;font-size:50.79999924px;line-height:1.25;font-family:'Advent Pro';-inkscape-font-specification:'Advent Pro Light';letter-spacing:0px;word-spacing:0px;fill:#000000;fill-opacity:1;stroke:none;stroke-width:0.26458332"
       id="text70" />
    <path
       sodipodi:type="inkscape:offset"
       inkscape:radius="0"
       inkscape:original="M 37.439453 0 C 29.247453 0 22.335125 1.6007812 16.703125 4.8007812 C 11.327125 8.1287812 7.168622 12.544828 4.2246094 18.048828 C 1.4086093 23.424828 0 30.592734 0 39.552734 L 0 99.839844 C 0 108.41584 1.8563593 115.58375 5.5683594 121.34375 C 9.408372 127.10375 14.400922 131.32762 20.544922 134.01562 C 26.688922 136.70363 33.343719 138.04883 40.511719 138.04883 C 54.207719 138.04883 64.192844 133.88836 70.464844 125.56836 L 72.384766 136.12891 L 78.912109 136.12891 L 78.912109 78.527344 L 52.416016 78.527344 L 55.488281 86.976562 L 70.65625 86.976562 L 70.65625 100.60742 C 70.65625 109.05542 68.031203 116.03116 62.783203 121.53516 C 57.663203 127.03916 50.239719 129.79297 40.511719 129.79297 C 31.039719 129.79297 23.360656 127.16792 17.472656 121.91992 C 11.584656 116.54392 8.640625 109.31261 8.640625 100.22461 L 8.640625 38.783203 C 8.640625 26.367203 11.903641 18.111625 18.431641 14.015625 C 24.959641 9.7916251 32.383125 7.6796875 40.703125 7.6796875 C 47.615126 7.8076875 54.719625 9.4084688 62.015625 12.480469 L 64.511719 6.3359375 C 56.447719 2.1119374 47.423454 0 37.439453 0 z M 184.70312 1.7285156 L 184.70312 110.7832 C 184.70312 118.3352 186.30391 124.35203 189.50391 128.83203 C 192.70391 133.31203 197.88669 136.57505 205.05469 138.62305 L 207.55078 131.71289 C 202.55878 130.04889 198.91142 127.55261 196.60742 124.22461 C 194.43142 120.76861 193.34375 116.2872 193.34375 110.7832 L 193.34375 48.191406 L 214.6543 48.191406 L 218.49609 39.935547 L 193.34375 39.935547 L 193.34375 1.7285156 L 184.70312 1.7285156 z M 491.32617 1.7285156 L 491.32617 136.12891 L 499.9668 136.12891 L 499.9668 1.7285156 L 491.32617 1.7285156 z M 348.28711 37.632812 C 340.99111 37.632812 334.84747 38.912656 329.85547 41.472656 C 324.99147 44.032656 321.40556 47.295672 319.10156 51.263672 C 316.79756 55.103672 315.64648 59.135375 315.64648 63.359375 C 315.64648 64.511375 315.70989 65.408828 315.83789 66.048828 C 316.34989 70.656828 318.07944 74.496359 321.02344 77.568359 C 323.96744 80.640359 327.35922 83.071281 331.19922 84.863281 C 335.16722 86.527281 340.35 88.383641 346.75 90.431641 C 352.766 92.351641 357.50298 94.144594 360.95898 95.808594 C 364.54298 97.344594 367.55042 99.456532 369.98242 102.14453 C 372.41442 104.83253 373.63086 108.22431 373.63086 112.32031 C 373.63086 118.33631 371.13458 122.94453 366.14258 126.14453 C 361.15058 129.34453 355.32592 130.94336 348.66992 130.94336 C 341.37392 130.94336 335.16688 129.27917 330.04688 125.95117 C 325.05487 122.49517 322.17425 117.76014 321.40625 111.74414 L 313.15039 111.74414 C 313.40639 116.73614 314.87841 121.28095 317.56641 125.37695 C 320.38241 129.47295 324.41411 132.79937 329.66211 135.35938 C 335.03811 137.79138 341.37392 139.00781 348.66992 139.00781 C 359.67792 139.00781 367.99886 136.44813 373.63086 131.32812 C 379.39086 126.20812 382.27148 119.80891 382.27148 112.12891 C 382.27148 106.24091 380.73411 101.44051 377.66211 97.728516 C 374.59011 93.888516 370.87934 91.007891 366.52734 89.087891 C 362.17534 87.039891 356.41409 84.864547 349.24609 82.560547 C 341.18209 80.128547 335.10186 77.759078 331.00586 75.455078 C 326.90986 73.023078 324.67111 69.567891 324.28711 65.087891 C 323.64711 58.687891 325.75905 53.824094 330.62305 50.496094 C 335.48705 47.040094 341.37511 45.3125 348.28711 45.3125 C 351.61511 45.3125 354.62255 45.696844 357.31055 46.464844 C 359.99855 47.232844 362.11048 48.064937 363.64648 48.960938 C 365.31048 49.728938 366.33475 50.240094 366.71875 50.496094 L 369.79102 43.199219 C 369.40702 42.943219 368.31934 42.368656 366.52734 41.472656 C 364.73534 40.576656 362.23906 39.744563 359.03906 38.976562 C 355.83906 38.080562 352.25511 37.632812 348.28711 37.632812 z M 434.11133 37.824219 C 422.46333 37.824219 413.50247 41.087234 407.23047 47.615234 C 401.08647 54.015234 398.01367 63.295078 398.01367 75.455078 L 398.01367 100.80078 C 398.01367 111.42478 401.02306 120.32028 407.03906 127.48828 C 413.18306 134.52828 422.20733 138.04883 434.11133 138.04883 C 446.01533 138.04883 454.91083 134.52828 460.79883 127.48828 C 466.68683 120.44828 469.63086 111.55278 469.63086 100.80078 L 469.63086 75.455078 C 469.63086 63.807078 466.49466 54.656 460.22266 48 C 453.95066 41.215999 445.24733 37.824219 434.11133 37.824219 z M 264.95898 38.207031 C 254.33498 38.207031 245.75847 41.087656 239.23047 46.847656 C 232.83047 52.607656 229.63086 60.671062 229.63086 71.039062 L 229.63086 110.40039 C 229.63086 119.74439 232.38272 126.78353 237.88672 131.51953 C 243.51872 136.12753 251.07097 138.43164 260.54297 138.43164 C 266.43097 138.43164 272.31903 137.66491 278.20703 136.12891 C 284.09503 134.59291 289.34317 132.3522 293.95117 129.4082 L 290.49414 122.6875 C 280.38214 128.0635 270.71795 130.75195 261.50195 130.75195 C 254.58995 130.75195 248.95942 129.08777 244.60742 125.75977 C 240.38342 122.30377 238.27148 117.2478 238.27148 110.5918 L 238.27148 96.767578 L 298.75 93.503906 L 298.75 70.464844 C 298.75 60.352844 295.74256 52.479656 289.72656 46.847656 C 283.83856 41.087656 275.58298 38.207031 264.95898 38.207031 z M 632.25391 38.207031 C 621.62991 38.207031 613.05339 41.087656 606.52539 46.847656 C 600.12539 52.607656 596.92578 60.671062 596.92578 71.039062 L 596.92578 110.40039 C 596.92578 119.74439 599.67764 126.78353 605.18164 131.51953 C 610.81364 136.12753 618.36589 138.43164 627.83789 138.43164 C 633.72589 138.43164 639.61395 137.66491 645.50195 136.12891 C 651.38995 134.59291 656.63809 132.3522 661.24609 129.4082 L 657.78906 122.6875 C 647.67706 128.0635 638.01287 130.75195 628.79688 130.75195 C 621.88487 130.75195 616.25434 129.08777 611.90234 125.75977 C 607.67834 122.30377 605.56641 117.2478 605.56641 110.5918 L 605.56641 96.767578 L 666.04492 93.503906 L 666.04492 70.464844 C 666.04492 60.352844 663.03748 52.479656 657.02148 46.847656 C 651.13348 41.087656 642.87791 38.207031 632.25391 38.207031 z M 131.71094 38.400391 L 131.13672 45.3125 C 143.42472 45.1845 151.80711 47.42325 156.28711 52.03125 C 160.76711 56.51125 163.00781 62.399313 163.00781 69.695312 C 158.52781 66.367312 153.0875 63.744219 146.6875 61.824219 C 140.2875 59.904219 133.95169 58.943359 127.67969 58.943359 C 121.02369 58.943359 115.51997 60.031031 111.16797 62.207031 C 102.20797 66.559031 97.728516 75.072141 97.728516 87.744141 L 97.728516 103.67969 C 97.728516 116.73569 101.69486 125.75995 109.63086 130.75195 C 117.56686 135.74395 128.25531 138.24023 141.69531 138.24023 C 147.83931 138.24023 157.82444 137.53691 171.64844 136.12891 L 171.64844 78.912109 C 171.64844 70.464109 170.94316 63.551781 169.53516 58.175781 C 168.25516 52.799781 164.6712 48.191562 158.7832 44.351562 C 153.0232 40.383562 143.99894 38.400391 131.71094 38.400391 z M 518.7832 39.935547 L 550.07812 136.12891 L 561.21484 136.12891 L 592.70312 39.935547 L 583.67773 39.935547 L 555.64648 126.14453 L 527.80664 39.935547 L 518.7832 39.935547 z M 264.76758 45.695312 C 271.16758 45.695312 276.99028 47.551672 282.23828 51.263672 C 287.48628 54.847672 290.11133 60.927906 290.11133 69.503906 L 290.11133 85.632812 L 238.27148 88.320312 L 238.27148 71.039062 C 238.27148 62.335063 240.76777 55.935844 245.75977 51.839844 C 250.87977 47.743844 257.21558 45.695312 264.76758 45.695312 z M 434.11133 45.695312 C 442.17533 45.695313 448.63795 48.128188 453.50195 52.992188 C 458.49395 57.856187 460.99023 65.279672 460.99023 75.263672 L 460.99023 102.14453 C 460.99023 110.46453 458.68612 117.24809 454.07812 122.49609 C 449.47012 127.74409 442.81533 130.36719 434.11133 130.36719 C 425.40733 130.36719 418.62181 127.74409 413.75781 122.49609 C 409.02181 117.12009 406.6543 110.33653 406.6543 102.14453 L 406.6543 75.263672 C 406.6543 65.151672 409.15058 57.728187 414.14258 52.992188 C 419.13458 48.128188 425.79133 45.695312 434.11133 45.695312 z M 632.0625 45.695312 C 638.4625 45.695312 644.2852 47.551672 649.5332 51.263672 C 654.7812 54.847672 657.40625 60.927906 657.40625 69.503906 L 657.40625 85.632812 L 605.56641 88.320312 L 605.56641 71.039062 C 605.56641 62.335063 608.06269 55.935844 613.05469 51.839844 C 618.17469 47.743844 624.5105 45.695312 632.0625 45.695312 z M 128.06445 66.816406 C 133.69645 66.816406 139.71133 67.840672 146.11133 69.888672 C 152.51133 71.808672 158.14381 74.112781 163.00781 76.800781 L 163.00781 128.83203 C 153.79181 129.98403 146.62391 130.56055 141.50391 130.56055 C 130.36791 130.56055 121.66458 128.64078 115.39258 124.80078 C 109.24858 120.83278 106.17578 114.23944 106.17578 105.02344 L 106.17578 88.320312 C 106.17578 80.640313 108.15895 75.136594 112.12695 71.808594 C 116.22295 68.480594 121.53645 66.816406 128.06445 66.816406 z M 40.689453 78.523438 A 6.3155617 6.3155617 0 0 0 34.373047 84.839844 A 6.3155617 6.3155617 0 0 0 37.734375 90.417969 L 34.373047 110.83008 L 47.003906 110.83008 L 43.642578 90.417969 A 6.3155617 6.3155617 0 0 0 47.003906 84.839844 A 6.3155617 6.3155617 0 0 0 40.689453 78.523438 z "
       style="fill:#000000;stroke-width:2.21998787"
       id="path92"
       d="m 37.439453,0 c -8.192,0 -15.104328,1.6007812 -20.736328,4.8007812 -5.376,3.328 -9.534503,7.7440468 -12.4785156,13.2480468 C 1.4086093,23.424828 0,30.592734 0,39.552734 v 60.28711 c 0,8.575996 1.8563593,15.743906 5.5683594,21.503906 3.8400126,5.76 8.8325626,9.98387 14.9765626,12.67187 6.144,2.68801 12.798797,4.03321 19.966797,4.03321 13.696,0 23.681125,-4.16047 29.953125,-12.48047 l 1.919922,10.56055 h 6.527343 V 78.527344 H 52.416016 l 3.072265,8.449218 H 70.65625 v 13.630858 c 0,8.448 -2.625047,15.42374 -7.873047,20.92774 -5.12,5.504 -12.543484,8.25781 -22.271484,8.25781 -9.472,0 -17.151063,-2.62505 -23.039063,-7.87305 -5.888,-5.376 -8.832031,-12.60731 -8.832031,-21.69531 V 38.783203 c 0,-12.416 3.263016,-20.671578 9.791016,-24.767578 6.528,-4.2239999 13.951484,-6.3359375 22.271484,-6.3359375 6.912001,0.128 14.0165,1.7287813 21.3125,4.8007815 L 64.511719,6.3359375 C 56.447719,2.1119374 47.423454,0 37.439453,0 Z M 184.70312,1.7285156 V 110.7832 c 0,7.552 1.60079,13.56883 4.80079,18.04883 3.2,4.48 8.38278,7.74302 15.55078,9.79102 l 2.49609,-6.91016 c -4.992,-1.664 -8.63936,-4.16028 -10.94336,-7.48828 -2.176,-3.456 -3.26367,-7.93741 -3.26367,-13.44141 V 48.191406 h 21.31055 l 3.84179,-8.255859 H 193.34375 V 1.7285156 Z m 306.62305,0 V 136.12891 h 8.64063 V 1.7285156 Z M 348.28711,37.632812 c -7.296,0 -13.43964,1.279844 -18.43164,3.839844 -4.864,2.56 -8.44991,5.823016 -10.75391,9.791016 -2.304,3.84 -3.45508,7.871703 -3.45508,12.095703 0,1.152 0.0634,2.049453 0.19141,2.689453 0.512,4.608 2.24155,8.447531 5.18555,11.519531 2.944,3.072 6.33578,5.502922 10.17578,7.294922 3.968,1.664 9.15078,3.52036 15.55078,5.56836 6.016,1.92 10.75298,3.712953 14.20898,5.376953 3.584,1.536 6.59144,3.647938 9.02344,6.335936 2.432,2.688 3.64844,6.07978 3.64844,10.17578 0,6.016 -2.49628,10.62422 -7.48828,13.82422 -4.992,3.2 -10.81666,4.79883 -17.47266,4.79883 -7.296,0 -13.50304,-1.66419 -18.62304,-4.99219 -4.99201,-3.456 -7.87263,-8.19103 -8.64063,-14.20703 h -8.25586 c 0.256,4.992 1.72802,9.53681 4.41602,13.63281 2.816,4.096 6.8477,7.42242 12.0957,9.98243 5.376,2.432 11.71181,3.64843 19.00781,3.64843 11.008,0 19.32894,-2.55968 24.96094,-7.67969 5.76,-5.12 8.64062,-11.51921 8.64062,-19.19921 0,-5.888 -1.53737,-10.6884 -4.60937,-14.400394 -3.072,-3.84 -6.78277,-6.720625 -11.13477,-8.640625 -4.352,-2.048 -10.11325,-4.223344 -17.28125,-6.527344 -8.064,-2.432 -14.14423,-4.801469 -18.24023,-7.105469 -4.096,-2.432 -6.33475,-5.887187 -6.71875,-10.367187 -0.64,-6.4 1.47194,-11.263797 6.33594,-14.591797 4.864,-3.456 10.75206,-5.183594 17.66406,-5.183594 3.328,0 6.33544,0.384344 9.02344,1.152344 2.688,0.768 4.79993,1.600093 6.33593,2.496094 1.664,0.768 2.68827,1.279156 3.07227,1.535156 l 3.07227,-7.296875 c -0.384,-0.256 -1.47168,-0.830563 -3.26368,-1.726563 -1.792,-0.896 -4.28828,-1.728093 -7.48828,-2.496094 -3.2,-0.896 -6.78395,-1.34375 -10.75195,-1.34375 z m 85.82422,0.191407 c -11.648,0 -20.60886,3.263015 -26.88086,9.791015 -6.144,6.4 -9.2168,15.679844 -9.2168,27.839844 v 25.345702 c 0,10.624 3.00939,19.5195 9.02539,26.6875 6.144,7.04 15.16827,10.56055 27.07227,10.56055 11.904,0 20.7995,-3.52055 26.6875,-10.56055 5.888,-7.04 8.83203,-15.9355 8.83203,-26.6875 V 75.455078 c 0,-11.648 -3.1362,-20.799078 -9.4082,-27.455078 -6.272,-6.784001 -14.97533,-10.175781 -26.11133,-10.175781 z m -169.15235,0.382812 c -10.624,0 -19.20051,2.880625 -25.72851,8.640625 -6.4,5.76 -9.59961,13.823406 -9.59961,24.191406 v 39.361328 c 0,9.344 2.75186,16.38314 8.25586,21.11914 5.632,4.608 13.18425,6.91211 22.65625,6.91211 5.888,0 11.77606,-0.76673 17.66406,-2.30273 5.888,-1.536 11.13614,-3.77671 15.74414,-6.72071 l -3.45703,-6.7207 c -10.112,5.376 -19.77619,8.06445 -28.99219,8.06445 -6.912,0 -12.54253,-1.66418 -16.89453,-4.99218 -4.224,-3.456 -6.33594,-8.51197 -6.33594,-15.16797 V 96.767578 L 298.75,93.503906 V 70.464844 c 0,-10.112 -3.00744,-17.985188 -9.02344,-23.617188 -5.888,-5.76 -14.14358,-8.640625 -24.76758,-8.640625 z m 367.29493,0 c -10.624,0 -19.20052,2.880625 -25.72852,8.640625 -6.4,5.76 -9.59961,13.823406 -9.59961,24.191406 v 39.361328 c 0,9.344 2.75186,16.38314 8.25586,21.11914 5.632,4.608 13.18425,6.91211 22.65625,6.91211 5.888,0 11.77606,-0.76673 17.66406,-2.30273 5.888,-1.536 11.13614,-3.77671 15.74414,-6.72071 l -3.45703,-6.7207 c -10.112,5.376 -19.77619,8.06445 -28.99218,8.06445 -6.91201,0 -12.54254,-1.66418 -16.89454,-4.99218 -4.224,-3.456 -6.33593,-8.51197 -6.33593,-15.16797 V 96.767578 l 60.47851,-3.263672 V 70.464844 c 0,-10.112 -3.00744,-17.985188 -9.02344,-23.617188 -5.888,-5.76 -14.14357,-8.640625 -24.76757,-8.640625 z m -500.54297,0.19336 -0.57422,6.912109 c 12.288,-0.128 20.67039,2.11075 25.15039,6.71875 4.48,4.48 6.7207,10.368063 6.7207,17.664062 -4.48,-3.328 -9.92031,-5.951093 -16.32031,-7.871093 -6.4,-1.92 -12.73581,-2.88086 -19.00781,-2.88086 -6.656,0 -12.15972,1.087672 -16.51172,3.263672 -8.96,4.352 -13.439454,12.86511 -13.439454,25.53711 v 15.935549 c 0,13.056 3.966344,22.08026 11.902344,27.07226 7.936,4.992 18.62445,7.48828 32.06445,7.48828 6.144,0 16.12913,-0.70332 29.95313,-2.11132 V 78.912109 c 0,-8.448 -0.70528,-15.360328 -2.11328,-20.736328 -1.28,-5.376 -4.86396,-9.984219 -10.75196,-13.824219 -5.76,-3.968 -14.78426,-5.951171 -27.07226,-5.951171 z m 387.07226,1.535156 31.29492,96.193363 h 11.13672 l 31.48828,-96.193363 h -9.02539 L 555.64648,126.14453 527.80664,39.935547 Z m -254.01562,5.759765 c 6.4,0 12.2227,1.85636 17.4707,5.56836 5.248,3.584 7.87305,9.664234 7.87305,18.240234 v 16.128906 l -51.83985,2.6875 v -17.28125 c 0,-8.703999 2.49629,-15.103218 7.48829,-19.199218 5.12,-4.096 11.45581,-6.144532 19.00781,-6.144532 z m 169.34375,0 c 8.064,10e-7 14.52662,2.432876 19.39062,7.296876 4.992,4.863999 7.48828,12.287484 7.48828,22.271484 v 26.880858 c 0,8.32 -2.30411,15.10356 -6.91211,20.35156 -4.608,5.248 -11.26279,7.8711 -19.96679,7.8711 -8.704,0 -15.48952,-2.6231 -20.35352,-7.8711 -4.736,-5.376 -7.10351,-12.15956 -7.10351,-20.35156 V 75.263672 c 0,-10.112 2.49628,-17.535485 7.48828,-22.271484 4.992,-4.864 11.64875,-7.296876 19.96875,-7.296876 z m 197.95117,0 c 6.4,0 12.2227,1.85636 17.4707,5.56836 5.248,3.584 7.87305,9.664234 7.87305,18.240234 v 16.128906 l -51.83984,2.6875 v -17.28125 c 0,-8.703999 2.49628,-15.103218 7.48828,-19.199218 5.12,-4.096 11.45581,-6.144532 19.00781,-6.144532 z M 128.06445,66.816406 c 5.632,0 11.64688,1.024266 18.04688,3.072266 6.4,1.92 12.03248,4.224109 16.89648,6.912109 v 52.031249 c -9.216,1.152 -16.3839,1.72852 -21.5039,1.72852 -11.136,0 -19.83933,-1.91977 -26.11133,-5.75977 -6.144,-3.968 -9.2168,-10.56134 -9.2168,-19.77734 V 88.320312 c 0,-7.679999 1.98317,-13.183718 5.95117,-16.511718 4.096,-3.328 9.4095,-4.992188 15.9375,-4.992188 z M 40.689453,78.523438 a 6.3155617,6.3155617 0 0 0 -6.316406,6.316406 6.3155617,6.3155617 0 0 0 3.361328,5.578125 L 34.373047,110.83008 H 47.003906 L 43.642578,90.417969 a 6.3155617,6.3155617 0 0 0 3.361328,-5.578125 6.3155617,6.3155617 0 0 0 -6.314453,-6.316406 z"
       transform="matrix(0.26458333,0,0,0.26458333,98.417745,163.83264)" />
  </g>
</svg>
