<svg xmlns="http://www.w3.org/2000/svg" aria-label="Gatesolve logo" width="78.913" height="138.047" viewBox="0 0 20.879 36.525"><path d="M2.282 26.52q0 3.607 2.337 5.74 2.337 2.083 6.096 2.083 3.86 0 5.893-2.184 2.082-2.185 2.082-5.537v-3.607h-4.013l-.813-2.235h7.01v15.24h-1.726l-.508-2.794q-2.49 3.302-7.925 3.302-2.845 0-5.283-1.067t-3.963-3.353q-1.473-2.286-1.473-5.69v-15.95q0-3.557 1.118-5.69 1.168-2.185 3.302-3.505Q6.65.003 9.902.003q3.962 0 7.163 1.676l-.66 1.626q-2.896-1.22-5.64-1.27-3.301 0-5.892 1.676-2.591 1.626-2.591 6.553z" fill="#00afff"/><path d="M10.765 20.776a1.671 1.671 0 00-1.67 1.67 1.671 1.671 0 00.889 1.477l-.89 5.4h3.342l-.89-5.4a1.671 1.671 0 00.89-1.476 1.671 1.671 0 00-1.67-1.671z" fill="#00afff"/></svg>