<svg version="1.0" xmlns="http://www.w3.org/2000/svg" width="1472" height="1472" viewBox="0 0 1104 1104"><path d="M511.8.5c-.2.2-4.8.6-10.3.9-5.5.4-11.3.9-13 1.1-1.6.3-4.8.7-7 1-4.2.4-9.9 1.2-15 2-16.1 2.4-47.8 10.9-60 16-1.6.7-5.5 2.3-8.5 3.5-9.8 4-31.3 15.1-33 17-.3.3-3 2.1-6 4s-5.7 3.7-6 4c-.3.3-2.3 1.9-4.6 3.5-11.2 8.2-24.9 20.6-38.6 35.2-2.1 2.2-6.9 8-10.7 12.9-3.8 4.9-7.7 9.7-8.7 10.8-.9 1-2.2 2.8-2.8 4-.7 1.1-3.2 5.2-5.7 9.1-10.1 15.5-18 31.4-24.4 49.4-2.4 6.8-7.3 22.6-8 25.8-.2 1-1 4.7-1.9 8.3-.8 3.6-1.8 8.1-2.1 10-.3 1.9-1 6-1.7 9-.6 3-1.2 6.8-1.5 8.5-.2 1.6-.5 4.1-.7 5.5-1 7.3-2 16.5-3.3 31-1 12.1-1.1 549.6 0 561 1.5 16.6 2.1 21.3 3.2 27 .3 1.4.8 4.3 1.1 6.5 2.4 16.6 9.1 40.6 16.4 59 4.5 11.3 16.8 36.3 19 38.5.3.3 1.1 1.6 1.8 3 1.7 3.3 20.1 27.9 24.9 33.2 6.3 7.1 22.5 23 28.2 27.8 3 2.5 6.4 5.4 7.7 6.5 1.2 1.1 3.2 2.7 4.4 3.5 1.2.8 5.5 3.9 9.5 6.7 4 2.9 7.7 5.3 8.2 5.3.5 0 1.8.8 2.9 1.8 2.6 2.2 7.8 5.2 19.9 11.4 20.4 10.5 42 18.8 67.5 25.8 5.8 1.6 11.6 3.1 13 3.4 1.4.2 3.2.7 4 1 .8.3 3.3.8 5.5 1.2 2.2.3 5.1.8 6.5 1.1 1.4.3 3.6.6 5 .8 1.4.1 3.2.5 4 .8.8.4 3.5.8 6 1.1 2.5.3 5.9.7 7.5 1 13 2.2 29.6 3.1 57.5 3.1 24.7 0 39.8-.6 49.2-2 1.8-.2 5.1-.6 7.3-.9 9.4-1 28.7-4.3 33-5.6 2.6-.8 4.9-1.3 11.2-2.4.7-.1 1.6-.5 1.9-.9.4-.4 1.5-.7 2.5-.7 2.2 0 26.3-7.9 34.9-11.5 6.9-2.9 23.1-10.8 29-14.2 8.3-4.8 27-17.4 30.6-20.8.6-.5 3.9-3.4 7.3-6.4 9.1-7.9 21.4-20.8 27.3-28.7 1.8-2.4 3.6-4.4 3.9-4.4.4 0 1 2.4 1.4 5.2.5 2.9.9 5.5 1 5.8 0 .3.5 2.7 1 5.5.4 2.7 1 5.7 1.1 6.5.6 3.3 1.6 8.6 2.1 11 .3 1.4.6 3.4.8 4.5.1 1.1 1 6 1.9 11 .9 4.9 1.8 10.1 2 11.5.3 1.4.5 2.6.7 2.7.1.2.2 1.1.4 2 .1 1 .5 3.4.8 5.3.4 1.9.9 4.5 1 5.7.2 1.2.6 2.5.9 2.9.4.3.4 1.2.2 1.9-.3.7.3 1.5 1.3 1.8 1 .3 12.9.5 26.5.4h24.6V628.2H861c-3.8 0-7.4-.3-8-.7-.5-.3-1-.3-1 .2 0 .9-28.2.8-30.5-.1-.8-.3-1.5-.2-1.5.2 0 .8-28.3.7-30.5-.2-.8-.3-1.5-.2-1.5.2s-29.7.6-66 .5l-65.9-.2 3.5 10.2c2 5.6 3.8 10.9 4.2 11.7.3.8 4.2 11.4 8.6 23.5l8.1 22H741l60.5.1v63.9c0 63.6-.4 74.5-3 89.5-2.1 12.5-2 12.2-3.5 18.5-1.5 7-6.9 25.4-8 27.4-.5.9-1.8 4.3-3.1 7.6-1.2 3.3-2.6 6.4-3.1 6.9-.4.6-.8 1.8-.8 2.7 0 1-.3 1.9-.7 2.1-.5.1-2.3 3.2-4 6.8-4.7 9.3-13 22.9-17.5 28.5-.5.5-3 3.8-5.6 7.1-12 15.3-24.2 27.1-42.7 41.1-12.6 9.6-38.2 21.8-58 27.7-4.9 1.5-10.3 3.1-12 3.6-4.1 1.3-11.1 2.7-16.5 3.5-2.4.4-4.8.9-5.2 1.1-.4.3-2.9.7-5.5.9-2.6.3-6.4.7-8.3 1-11 1.5-19 1.9-42.5 1.9-26.4 0-42.5-.9-53-3-1.1-.3-3.6-.7-5.5-1-8.7-1.3-10.8-1.8-24.2-5-1-.2-2.7-.6-3.7-.8-5.7-1.3-23.9-7.6-34.5-11.9-8.4-3.5-34.6-17.6-36.6-19.7-.3-.3-3-2.2-6-4.2-14.3-9.4-30.7-24.5-43.6-40.3-7-8.6-20.4-28.8-20.4-30.9 0-.8-.4-1.6-.8-1.8-1.8-.6-12.2-24.7-15.1-34.8-.7-2.5-1.6-5.2-1.9-6-.3-.8-.6-2.2-.8-3-.1-.8-.7-3.1-1.3-5-1.9-7-3-11.6-3.6-15.5-.3-2.3-.8-5.2-1.1-6.5-.5-2.6-.9-6.2-2.2-19-.9-9.9-.9-543.6 0-556.5.5-5.5 1-10.9 1.2-12 .2-1.1.7-4.7 1-8 .4-3.3.9-7.4 1.2-9 .3-1.7.7-3.9.9-5 3.2-18.9 8.2-37.5 13.8-52 3.3-8.3 15-30.8 17.5-33.3.6-.7 1.2-1.7 1.2-2.1 0-.4.8-1.6 1.8-2.7.9-1 3-3.7 4.6-5.9 5.1-6.9 19.9-20.8 27.7-26 4.1-2.8 7.6-5.2 7.9-5.5.3-.3 1.5-1.1 2.8-1.8 1.2-.6 3.2-1.8 4.5-2.5 1.2-.6 2.4-1.5 2.7-1.8 1-1.3 24.7-13.2 35-17.6 10.8-4.6 37.7-13.9 43.3-14.8 1.6-.3 3.3-.8 3.7-1 .3-.2 1.7-.6 3.1-.9 1.3-.3 3.5-.7 4.9-1.1 7.8-1.7 21.6-4 29.9-5 3-.4 6.3-.8 7.4-1.1 4.1-.7 24.8-1.7 37.2-1.7 15.6 0 36.7 1.5 51 3.7 9.7 1.5 14.4 2.3 17.5 3 1.4.3 4.1.8 6 1.1 1.9.3 7.3 1.4 12 2.5s9.6 2.3 11 2.6c1.4.3 7.2 1.9 13 3.6 5.8 1.7 11.2 3.2 12 3.3.8.2 1.6.4 1.8.5.1.2.5.3 1 .4 1.7.4 14.8 4.9 15.7 5.5.6.3 1.5.6 2 .7 1.1.2 16 5.9 24.2 9.2 3.7 1.5 5.3 1.8 5.6.9 10.1-25.3 13.1-32.4 13.8-33.2.5-.5.9-1.9.9-3.2 0-1.3.5-2.3 1.2-2.3.6 0 .9-.3.6-.6-.4-.3.2-2.4 1.2-4.7l1.8-4-10.6-5.3c-5.9-2.8-12.4-5.9-14.4-6.8-2.1-.9-5.3-2.2-7-3-1.8-.8-6.4-2.6-10.3-4.1-3.8-1.5-7.8-3.1-8.9-3.7-1-.5-2.9-1.2-4.2-1.4-1.3-.2-3.6-.9-5.1-1.5-1.6-.6-2.9-1-3-1-.2 0-2.2-.7-4.5-1.5-2.4-.9-5-1.7-5.8-1.9-.8-.2-1.5-.4-1.5-.5 0-.1-.7-.3-1.5-.5s-5.5-1.5-10.5-2.8c-8.4-2.3-28.1-6.9-35-8.1-8.1-1.5-20.5-3.5-24.5-4-2.5-.3-6.1-.8-8-1-1.9-.3-6.6-.8-10.5-1.1-3.8-.3-9.2-.8-12-1.1C570 .8 512.3 0 511.8.5z"/><path d="M550 629.6c-16.5 4.4-30.2 17.1-35.6 32.9-1.8 5.4-3.3 16.5-2.3 16.5.5 0 .6.6.3 1.4-.8 2 1.5 13.4 3.4 17.6 4.5 9.7 13.7 20.4 20 23.3 1.9.9 2.5 1.8 2.4 3.7 0 .8-1.2 8.3-1.7 11-.2 1.4-.7 4.1-.9 6-.3 1.9-.7 4.4-1 5.5-.2 1.1-.7 4.2-1 6.8-.4 2.7-1 5.9-1.2 7-.5 2.4-1.3 7.3-1.9 12.2-.2 1.6-.4 3-.5 3-.1 0-.3 1.3-.6 3-.2 1.6-.8 5.5-1.4 8.5-.5 3-1.2 7.1-1.5 9-.2 1.9-1.1 7.3-1.9 12-.8 4.7-1.8 10.5-2.1 13-.3 2.5-.8 5.2-1 6-.2.8-.6 3.1-.9 5-.3 1.9-.8 4.8-1.2 6.5-.3 1.6-.7 4.3-.9 6-.2 1.6-.7 4.6-1 6.5-.3 1.9-.8 4.8-1.1 6.5-.3 1.6-.6 3.9-.8 5-.4 2.4-1.7 10.3-2.2 13-1.5 8.2-1.5 9.5.3 9.6 1 0 23.6.1 50.3.1 41.2.1 48.5-.1 48.5-1.3-.1-1.5-1.3-9.5-2.1-13.2-.2-1.2-.7-4.2-.9-6.7-.3-2.5-.8-5.2-1.1-6.1-.2-.9-.7-3.2-.9-5-.2-1.9-1.6-10.2-3-18.4-1.4-8.3-2.8-16.6-3.1-18.5-.3-1.9-.7-4.6-1-6-.2-1.4-1.1-6.8-1.9-12-.9-5.2-1.8-10.6-2-12-.2-1.4-.7-4.3-1-6.5-.3-2.2-1-6.3-1.5-9-1-5.3-1.5-8.4-3-18-.5-3.3-1.9-11.4-3-18s-2-12.1-2-12.1c0-.1 1.7-1.3 3.8-2.7 7.5-4.9 18.2-17.4 18.2-21.1 0-.8.4-1.7.9-2 1.4-.9 3.3-10.3 3.6-18.2.4-8.4-1.4-16.4-5.6-24.4-4-7.8-15.9-20-19.4-20-.8 0-1.5-.4-1.5-.8 0-.5-3-1.9-6.7-3.2-8.3-2.9-21.2-3.5-29.3-1.4z"/></svg>